<svg width="104" height="108" viewBox="0 0 104 108" fill="none" xmlns="http://www.w3.org/2000/svg">
<path d="M37.1083 27.1644C42.5323 12.3182 64.1042 14.2055 66.8678 29.768C67.8566 35.3364 71.7343 39.9577 77.0464 41.8984C91.8926 47.3224 90.0053 68.8943 74.4428 71.6578C68.8744 72.6467 64.2531 76.5244 62.3123 81.8365C56.8884 96.6827 35.3165 94.7954 32.5529 79.2329C31.5641 73.6645 27.6864 69.0432 22.3743 67.1024C7.52808 61.6785 9.41538 40.1066 24.9779 37.343C30.5463 36.3542 35.1676 32.4765 37.1083 27.1644Z" stroke="url(#paint0_linear_1_498)" stroke-width="0.4"/>
<path d="M42.0468 25.3912C49.9664 11.7124 70.8828 17.3169 70.902 33.1229C70.9088 38.7785 73.9251 44.0029 78.8195 46.8366C92.4983 54.7562 86.8938 75.6726 71.0878 75.6918C65.4323 75.6986 60.2079 78.7149 57.3742 83.6093C49.4546 97.2882 28.5381 91.6836 28.519 75.8776C28.5121 70.2221 25.4958 64.9977 20.6014 62.164C6.92259 54.2444 12.5271 33.3279 28.3331 33.3088C33.9886 33.3019 39.2131 30.2856 42.0468 25.3912Z" stroke="url(#paint1_linear_1_498)" stroke-width="0.4"/>
<path d="M47.218 24.502C57.3926 12.4062 77.018 21.5577 74.2922 37.1269C73.3169 42.6977 75.3802 48.3665 79.7081 52.0071C91.8039 62.1817 82.6524 81.8071 67.0832 79.0813C61.5124 78.106 55.8436 80.1693 52.2031 84.4972C42.0285 96.593 22.403 87.4415 25.1288 71.8723C26.1042 66.3015 24.0409 60.6327 19.7129 56.9921C7.61713 46.8176 16.7686 27.1921 32.3378 29.9179C37.9086 30.8933 43.5775 28.83 47.218 24.502Z" stroke="url(#paint2_linear_1_498)" stroke-width="0.4"/>
<path d="M52.4648 24.5244C64.5852 14.3792 82.3234 26.7996 76.9354 41.6589C75.0075 46.9757 76.0551 52.9167 79.6852 57.2535C89.8304 69.3739 77.41 87.1121 62.5507 81.7241C57.2339 79.7962 51.2929 80.8438 46.9561 84.4738C34.8357 94.6191 17.0975 82.1987 22.4855 67.3393C24.4133 62.0226 23.3658 56.0815 19.7357 51.7448C9.5905 39.6244 22.0109 21.8862 36.8702 27.2742C42.187 29.202 48.128 28.1545 52.4648 24.5244Z" stroke="url(#paint3_linear_1_498)" stroke-width="0.4"/>
<path d="M57.6283 25.4589C71.3262 17.5725 86.6381 32.8844 78.7517 46.5824C75.9299 51.4837 75.9299 57.5163 78.7517 62.4176C86.6381 76.1155 71.3262 91.4274 57.6283 83.541C52.727 80.7192 46.6944 80.7192 41.7931 83.541C28.0951 91.4274 12.7832 76.1155 20.6696 62.4176C23.4915 57.5163 23.4915 51.4837 20.6696 46.5824C12.7832 32.8844 28.0951 17.5725 41.7931 25.4589C46.6944 28.2808 52.727 28.2808 57.6283 25.4589Z" stroke="url(#paint4_linear_1_498)" stroke-width="0.4"/>
<path d="M62.5511 27.2742C77.4104 21.8862 89.8308 39.6244 79.6856 51.7448C76.0556 56.0815 75.008 62.0225 76.9359 67.3393C82.3238 82.1987 64.5857 94.6191 52.4653 84.4738C48.1285 80.8438 42.1875 79.7962 36.8707 81.7241C22.0114 87.1121 9.59098 69.3739 19.7362 57.2535C23.3663 52.9167 24.4138 46.9757 22.4859 41.6589C17.098 26.7996 34.8361 14.3792 46.9565 24.5244C51.2933 28.1545 57.2343 29.202 62.5511 27.2742Z" stroke="url(#paint5_linear_1_498)" stroke-width="0.4"/>
<path d="M67.0835 29.9179C82.6527 27.1921 91.8042 46.8176 79.7084 56.9921C75.3805 60.6327 73.3172 66.3015 74.2925 71.8723C77.0183 87.4415 57.3928 96.593 47.2183 84.4972C43.5777 80.1693 37.9089 78.106 32.3381 79.0813C16.7689 81.8071 7.61742 62.1817 19.7132 52.0071C24.0412 48.3665 26.1045 42.6977 25.1291 37.1269C22.4033 21.5577 42.0288 12.4062 52.2033 24.502C55.8439 28.83 61.5127 30.8933 67.0835 29.9179Z" stroke="url(#paint6_linear_1_498)" stroke-width="0.4"/>
<defs>
<linearGradient id="paint0_linear_1_498" x1="56.8901" y1="-27.564" x2="42.5306" y2="136.565" gradientUnits="userSpaceOnUse">
<stop stop-color="#FF4D00"/>
<stop offset="0.817708" stop-color="#B4ADF5"/>
</linearGradient>
<linearGradient id="paint1_linear_1_498" x1="71.0314" y1="-25.0707" x2="28.3895" y2="134.071" gradientUnits="userSpaceOnUse">
<stop stop-color="#FF4D00"/>
<stop offset="0.817708" stop-color="#B4ADF5"/>
</linearGradient>
<linearGradient id="paint2_linear_1_498" x1="84.5249" y1="-20.1601" x2="14.8961" y2="129.159" gradientUnits="userSpaceOnUse">
<stop stop-color="#FF4D00"/>
<stop offset="0.817708" stop-color="#B4ADF5"/>
</linearGradient>
<linearGradient id="paint3_linear_1_498" x1="96.9605" y1="-12.9809" x2="2.4604" y2="121.979" gradientUnits="userSpaceOnUse">
<stop stop-color="#FF4D00"/>
<stop offset="0.817708" stop-color="#B4ADF5"/>
</linearGradient>
<linearGradient id="paint4_linear_1_498" x1="107.961" y1="-3.75001" x2="-8.53931" y2="112.75" gradientUnits="userSpaceOnUse">
<stop stop-color="#FF4D00"/>
<stop offset="0.817708" stop-color="#B4ADF5"/>
</linearGradient>
<linearGradient id="paint5_linear_1_498" x1="117.191" y1="7.24909" x2="-17.7691" y2="101.749" gradientUnits="userSpaceOnUse">
<stop stop-color="#FF4D00"/>
<stop offset="0.817708" stop-color="#B4ADF5"/>
</linearGradient>
<linearGradient id="paint6_linear_1_498" x1="124.371" y1="19.6852" x2="-24.9489" y2="89.314" gradientUnits="userSpaceOnUse">
<stop stop-color="#FF4D00"/>
<stop offset="0.817708" stop-color="#B4ADF5"/>
</linearGradient>
</defs>
</svg>
